<svg width="399" height="134" viewBox="0 0 399 134" fill="none" xmlns="http://www.w3.org/2000/svg">
<rect y="15" width="383" height="156" rx="16" fill="#ECEDF0"/>
<g clip-path="url(#clip0_2488_22931)">
<path d="M32 37C32 32.5817 35.5817 29 40 29H343C347.418 29 351 32.5817 351 37V153H32V37Z" fill="white"/>
<g clip-path="url(#clip1_2488_22931)">
<rect x="44" y="41" width="106" height="69" rx="4" fill="black" fill-opacity="0.1"/>
<rect x="44" y="41" width="160" height="69" fill="url(#paint0_linear_2488_22931)"/>
</g>
<rect x="160" y="41" width="199" height="14" rx="4" fill="black" fill-opacity="0.1"/>
<rect x="160" y="41" width="160" height="14" fill="url(#paint1_linear_2488_22931)"/>
<rect x="160" y="68" width="170" height="14" rx="4" fill="black" fill-opacity="0.1"/>
<rect x="160" y="68" width="160" height="14" fill="url(#paint2_linear_2488_22931)"/>
<g clip-path="url(#clip2_2488_22931)">
<rect x="160" y="95" width="54" height="14" rx="4" fill="black" fill-opacity="0.1"/>
<rect x="160" y="95" width="160" height="14" fill="url(#paint3_linear_2488_22931)"/>
</g>
<g clip-path="url(#clip3_2488_22931)">
<rect x="228" y="95" width="90" height="14" rx="4" fill="black" fill-opacity="0.1"/>
<rect x="228" y="95" width="160" height="14" fill="url(#paint4_linear_2488_22931)"/>
</g>
<g clip-path="url(#clip4_2488_22931)">
<rect x="160" y="122" width="54" height="14" rx="4" fill="black" fill-opacity="0.1"/>
<rect x="160" y="122" width="160" height="14" fill="url(#paint5_linear_2488_22931)"/>
</g>
<g clip-path="url(#clip5_2488_22931)">
<rect x="228" y="122" width="90" height="14" rx="4" fill="black" fill-opacity="0.1"/>
<rect x="228" y="122" width="160" height="14" fill="url(#paint6_linear_2488_22931)"/>
</g>
</g>
<path d="M40 29.5H343C347.142 29.5 350.5 32.8579 350.5 37V152.5H32.5V37C32.5 32.8579 35.8579 29.5 40 29.5Z" stroke="url(#paint7_linear_2488_22931)"/>
<g filter="url(#filter0_d_2488_22931)">
<rect x="248" width="147" height="40" rx="8" fill="#ECF1F9" shape-rendering="crispEdges"/>
<rect x="248.5" y="0.5" width="146" height="39" rx="7.5" stroke="url(#paint8_linear_2488_22931)" stroke-opacity="0.6" shape-rendering="crispEdges"/>
<path d="M264.439 11.8341C264.709 10.722 266.291 10.722 266.561 11.8341L267.303 14.8941C267.399 15.2912 267.709 15.6012 268.106 15.6975L271.166 16.4395C272.278 16.7092 272.278 18.2908 271.166 18.5605L268.106 19.3025C267.709 19.3988 267.399 19.7088 267.303 20.1059L266.561 23.1659C266.291 24.278 264.709 24.278 264.439 23.1659L263.697 20.1059C263.601 19.7088 263.291 19.3988 262.894 19.3025L259.834 18.5605C258.722 18.2908 258.722 16.7092 259.834 16.4395L262.894 15.6975C263.291 15.6012 263.601 15.2912 263.697 14.8941L264.439 11.8341Z" fill="#4891F1"/>
<path d="M273.347 22.5133C273.513 21.8289 274.487 21.8289 274.653 22.5133L275.109 24.3964C275.168 24.6407 275.359 24.8315 275.604 24.8908L277.487 25.3474C278.171 25.5133 278.171 26.4867 277.487 26.6526L275.604 27.1092C275.359 27.1685 275.168 27.3593 275.109 27.6036L274.653 29.4867C274.487 30.1711 273.513 30.1711 273.347 29.4867L272.891 27.6036C272.832 27.3593 272.641 27.1685 272.396 27.1092L270.513 26.6526C269.829 26.4867 269.829 25.5133 270.513 25.3474L272.396 24.8908C272.641 24.8315 272.832 24.6407 272.891 24.3964L273.347 22.5133Z" fill="#4891F1"/>
<path d="M276.572 11.7118C276.681 11.2627 277.319 11.2627 277.428 11.7118L277.728 12.9476C277.767 13.108 277.892 13.2332 278.052 13.2721L279.288 13.5717C279.737 13.6806 279.737 14.3194 279.288 14.4283L278.052 14.7279C277.892 14.7668 277.767 14.892 277.728 15.0524L277.428 16.2882C277.319 16.7373 276.681 16.7373 276.572 16.2882L276.272 15.0524C276.233 14.892 276.108 14.7668 275.948 14.7279L274.712 14.4283C274.263 14.3194 274.263 13.6806 274.712 13.5717L275.948 13.2721C276.108 13.2332 276.233 13.108 276.272 12.9476L276.572 11.7118Z" fill="#4891F1"/>
<path fill-rule="evenodd" clip-rule="evenodd" d="M277 11.9311L276.755 12.9397C276.658 13.3429 276.343 13.6577 275.94 13.7554L274.931 14L275.94 14.2446C276.343 14.3423 276.658 14.6571 276.755 15.0603L277 16.0689L277.245 15.0603C277.342 14.6571 277.657 14.3423 278.06 14.2446L279.069 14L278.06 13.7554C277.657 13.6577 277.342 13.3429 277.245 12.9397L277 11.9311ZM277.489 11.385C277.365 10.8717 276.635 10.8717 276.511 11.385L276.168 12.7973C276.124 12.9805 275.981 13.1236 275.797 13.1681L274.385 13.5105C273.872 13.635 273.872 14.365 274.385 14.4895L275.797 14.8319C275.981 14.8764 276.124 15.0195 276.168 15.2027L276.511 16.615C276.635 17.1283 277.365 17.1283 277.489 16.615L277.832 15.2027C277.876 15.0195 278.019 14.8764 278.203 14.8319L279.615 14.4895C280.128 14.365 280.128 13.635 279.615 13.5105L278.203 13.1681C278.019 13.1236 277.876 12.9805 277.832 12.7973L277.489 11.385Z" fill="#4891F1"/>
<path d="M265 31C264.448 31 264 30.5523 264 30C264 29.4477 264.448 29 265 29C265.552 29 266 29.4477 266 30C266 30.5523 265.552 31 265 31Z" fill="#4891F1"/>
<path d="M260 27C259.448 27 259 26.5523 259 26C259 25.4477 259.448 25 260 25C260.552 25 261 25.4477 261 26C261 26.5523 260.552 27 260 27Z" fill="#4891F1"/>
<path d="M271 11C270.448 11 270 10.5523 270 10C270 9.44772 270.448 9 271 9C271.552 9 272 9.44772 272 10C272 10.5523 271.552 11 271 11Z" fill="#4891F1"/>
<path d="M280 22C279.448 22 279 21.5523 279 21C279 20.4477 279.448 20 280 20C280.552 20 281 20.4477 281 21C281 21.5523 280.552 22 280 22Z" fill="#4891F1"/>
<path d="M293.253 14.8182H294.774V23.6676H298.135V14.8182H299.656V23.6676H303.007V14.8182H304.523V25H293.253V14.8182ZM308.237 22.9169L311.603 17.3636H313.204V25H311.747V19.4418L308.396 25H306.781V17.3636H308.237V22.9169ZM320.378 20.5405V21.8281H316.241V20.5405H320.378ZM316.659 17.3636V25H315.202V17.3636H316.659ZM321.417 17.3636V25H319.965V17.3636H321.417ZM326.031 18.5518C325.772 18.5552 325.523 18.6165 325.285 18.7358C325.046 18.8551 324.849 19.0142 324.693 19.2131C324.541 19.4119 324.464 19.6373 324.464 19.8892H323.062C323.062 19.5312 323.142 19.1932 323.301 18.875C323.46 18.5568 323.677 18.2768 323.952 18.0348C324.228 17.7929 324.544 17.6023 324.902 17.4631C325.26 17.3239 325.636 17.2543 326.031 17.2543C326.75 17.2543 327.358 17.4299 327.855 17.7812C328.356 18.1293 328.735 18.5933 328.994 19.1733C329.252 19.75 329.381 20.383 329.381 21.0724V21.321C329.381 22.0104 329.252 22.6451 328.994 23.2251C328.735 23.8052 328.356 24.2692 327.855 24.6172C327.358 24.9652 326.75 25.1392 326.031 25.1392C325.454 25.1392 324.942 25.0166 324.494 24.7713C324.047 24.526 323.696 24.1913 323.44 23.767C323.188 23.3395 323.062 22.8523 323.062 22.3054H324.464C324.464 22.5772 324.536 22.8291 324.678 23.0611C324.821 23.2931 325.01 23.4804 325.245 23.6229C325.484 23.7621 325.746 23.8333 326.031 23.8366C326.458 23.8333 326.811 23.7041 327.089 23.4489C327.371 23.1937 327.58 22.8738 327.716 22.4893C327.855 22.1016 327.925 21.7121 327.925 21.321V21.0724C327.925 20.6648 327.855 20.2687 327.716 19.8842C327.58 19.4998 327.371 19.1832 327.089 18.9347C326.811 18.6828 326.458 18.5552 326.031 18.5518ZM328.447 20.5902V21.7337H325.32V20.5902H328.447ZM343.703 19.9091C343.703 20.9962 343.504 21.9309 343.107 22.7131C342.709 23.492 342.164 24.0919 341.471 24.5128C340.782 24.9304 339.998 25.1392 339.119 25.1392C338.238 25.1392 337.451 24.9304 336.758 24.5128C336.069 24.0919 335.525 23.4903 335.127 22.7081C334.73 21.9259 334.531 20.9929 334.531 19.9091C334.531 18.822 334.73 17.889 335.127 17.1101C335.525 16.3279 336.069 15.728 336.758 15.3104C337.451 14.8894 338.238 14.679 339.119 14.679C339.998 14.679 340.782 14.8894 341.471 15.3104C342.164 15.728 342.709 16.3279 343.107 17.1101C343.504 17.889 343.703 18.822 343.703 19.9091ZM342.182 19.9091C342.182 19.0805 342.048 18.3828 341.779 17.8161C341.514 17.246 341.15 16.8151 340.686 16.5234C340.225 16.2285 339.703 16.081 339.119 16.081C338.533 16.081 338.009 16.2285 337.548 16.5234C337.088 16.8151 336.723 17.246 336.455 17.8161C336.19 18.3828 336.057 19.0805 336.057 19.9091C336.057 20.7377 336.19 21.437 336.455 22.0071C336.723 22.5739 337.088 23.0047 337.548 23.2997C338.009 23.5914 338.533 23.7372 339.119 23.7372C339.703 23.7372 340.225 23.5914 340.686 23.2997C341.15 23.0047 341.514 22.5739 341.779 22.0071C342.048 21.437 342.182 20.7377 342.182 19.9091ZM350.675 20.5405V21.8281H346.538V20.5405H350.675ZM346.956 17.3636V25H345.499V17.3636H346.956ZM351.714 17.3636V25H350.262V17.3636H351.714ZM359.932 17.3636V23.782H361.05V27.4609H359.584V25H353.702V17.3636H355.159V23.7173H358.48V17.3636H359.932ZM362.097 25L362.092 23.7124H362.365C362.578 23.7124 362.755 23.6676 362.897 23.5781C363.043 23.4853 363.163 23.3295 363.255 23.1108C363.348 22.892 363.419 22.5904 363.469 22.206C363.519 21.8182 363.555 21.331 363.578 20.7443L363.713 17.3636H369.042V25H367.586V18.6463H365.09L364.971 21.2415C364.941 21.8712 364.876 22.4214 364.777 22.892C364.681 23.3627 364.54 23.7554 364.354 24.0703C364.168 24.3819 363.93 24.6155 363.638 24.7713C363.346 24.9238 362.992 25 362.574 25H362.097ZM374.241 25.1541C373.525 25.1541 372.901 24.9901 372.367 24.6619C371.833 24.3338 371.419 23.8748 371.124 23.2848C370.829 22.6948 370.682 22.0054 370.682 21.2166C370.682 20.4245 370.829 19.7318 371.124 19.1385C371.419 18.5452 371.833 18.0845 372.367 17.7564C372.901 17.4283 373.525 17.2642 374.241 17.2642C374.957 17.2642 375.582 17.4283 376.116 17.7564C376.649 18.0845 377.064 18.5452 377.358 19.1385C377.653 19.7318 377.801 20.4245 377.801 21.2166C377.801 22.0054 377.653 22.6948 377.358 23.2848C377.064 23.8748 376.649 24.3338 376.116 24.6619C375.582 24.9901 374.957 25.1541 374.241 25.1541ZM374.246 23.9062C374.71 23.9062 375.095 23.7836 375.4 23.5384C375.705 23.2931 375.93 22.9666 376.076 22.5589C376.225 22.1513 376.3 21.7022 376.3 21.2116C376.3 20.7244 376.225 20.277 376.076 19.8693C375.93 19.4583 375.705 19.1286 375.4 18.88C375.095 18.6314 374.71 18.5071 374.246 18.5071C373.779 18.5071 373.391 18.6314 373.083 18.88C372.778 19.1286 372.551 19.4583 372.402 19.8693C372.256 20.277 372.183 20.7244 372.183 21.2116C372.183 21.7022 372.256 22.1513 372.402 22.5589C372.551 22.9666 372.778 23.2931 373.083 23.5384C373.391 23.7836 373.779 23.9062 374.246 23.9062ZM384.342 17.3636V18.6463H380.927V25H379.46V17.3636H384.342Z" fill="#4891F1"/>
</g>
<defs>
<filter id="filter0_d_2488_22931" x="244" y="0" width="155" height="48" filterUnits="userSpaceOnUse" color-interpolation-filters="sRGB">
<feFlood flood-opacity="0" result="BackgroundImageFix"/>
<feColorMatrix in="SourceAlpha" type="matrix" values="0 0 0 0 0 0 0 0 0 0 0 0 0 0 0 0 0 0 127 0" result="hardAlpha"/>
<feOffset dy="4"/>
<feGaussianBlur stdDeviation="2"/>
<feComposite in2="hardAlpha" operator="out"/>
<feColorMatrix type="matrix" values="0 0 0 0 0 0 0 0 0 0 0 0 0 0 0 0 0 0 0.25 0"/>
<feBlend mode="normal" in2="BackgroundImageFix" result="effect1_dropShadow_2488_22931"/>
<feBlend mode="normal" in="SourceGraphic" in2="effect1_dropShadow_2488_22931" result="shape"/>
</filter>
<linearGradient id="paint0_linear_2488_22931" x1="44" y1="75.5" x2="204" y2="75.5" gradientUnits="userSpaceOnUse">
<stop stop-color="white" stop-opacity="0"/>
<stop offset="0.545" stop-color="white"/>
<stop offset="1" stop-color="white" stop-opacity="0"/>
</linearGradient>
<linearGradient id="paint1_linear_2488_22931" x1="160" y1="48" x2="320" y2="48" gradientUnits="userSpaceOnUse">
<stop stop-color="white" stop-opacity="0"/>
<stop offset="0.545" stop-color="white"/>
<stop offset="1" stop-color="white" stop-opacity="0"/>
</linearGradient>
<linearGradient id="paint2_linear_2488_22931" x1="160" y1="75" x2="320" y2="75" gradientUnits="userSpaceOnUse">
<stop stop-color="white" stop-opacity="0"/>
<stop offset="0.545" stop-color="white"/>
<stop offset="1" stop-color="white" stop-opacity="0"/>
</linearGradient>
<linearGradient id="paint3_linear_2488_22931" x1="160" y1="102" x2="320" y2="102" gradientUnits="userSpaceOnUse">
<stop stop-color="white" stop-opacity="0"/>
<stop offset="0.545" stop-color="white"/>
<stop offset="1" stop-color="white" stop-opacity="0"/>
</linearGradient>
<linearGradient id="paint4_linear_2488_22931" x1="228" y1="102" x2="388" y2="102" gradientUnits="userSpaceOnUse">
<stop stop-color="white" stop-opacity="0"/>
<stop offset="0.545" stop-color="white"/>
<stop offset="1" stop-color="white" stop-opacity="0"/>
</linearGradient>
<linearGradient id="paint5_linear_2488_22931" x1="160" y1="129" x2="320" y2="129" gradientUnits="userSpaceOnUse">
<stop stop-color="white" stop-opacity="0"/>
<stop offset="0.545" stop-color="white"/>
<stop offset="1" stop-color="white" stop-opacity="0"/>
</linearGradient>
<linearGradient id="paint6_linear_2488_22931" x1="228" y1="129" x2="388" y2="129" gradientUnits="userSpaceOnUse">
<stop stop-color="white" stop-opacity="0"/>
<stop offset="0.545" stop-color="white"/>
<stop offset="1" stop-color="white" stop-opacity="0"/>
</linearGradient>
<linearGradient id="paint7_linear_2488_22931" x1="39.7568" y1="40.4658" x2="347.274" y2="73.59" gradientUnits="userSpaceOnUse">
<stop stop-color="#304971" stop-opacity="0"/>
<stop offset="1" stop-color="#5B8AD7"/>
</linearGradient>
<linearGradient id="paint8_linear_2488_22931" x1="248" y1="20" x2="394.999" y2="20.2904" gradientUnits="userSpaceOnUse">
<stop stop-color="#3674C6"/>
<stop offset="0.524038" stop-color="#CFFEFF"/>
<stop offset="0.567308" stop-color="#CFFEFF"/>
<stop offset="1" stop-color="#3674C6"/>
</linearGradient>
<clipPath id="clip0_2488_22931">
<path d="M32 37C32 32.5817 35.5817 29 40 29H343C347.418 29 351 32.5817 351 37V153H32V37Z" fill="white"/>
</clipPath>
<clipPath id="clip1_2488_22931">
<rect x="44" y="41" width="106" height="69" rx="4" fill="white"/>
</clipPath>
<clipPath id="clip2_2488_22931">
<rect x="160" y="95" width="54" height="14" rx="4" fill="white"/>
</clipPath>
<clipPath id="clip3_2488_22931">
<rect x="228" y="95" width="90" height="14" rx="4" fill="white"/>
</clipPath>
<clipPath id="clip4_2488_22931">
<rect x="160" y="122" width="54" height="14" rx="4" fill="white"/>
</clipPath>
<clipPath id="clip5_2488_22931">
<rect x="228" y="122" width="90" height="14" rx="4" fill="white"/>
</clipPath>
</defs>
</svg>
